<svg width="34" height="24" viewBox="0 0 34 24" fill="none" xmlns="http://www.w3.org/2000/svg">
<path d="M0 16.2857C0 20.5446 3.42656 24 7.65 24H27.2C30.9559 24 34 20.9304 34 17.1429C34 13.8268 31.6625 11.0571 28.56 10.425C28.7778 9.85179 28.9 9.225 28.9 8.57143C28.9 5.73214 26.6156 3.42857 23.8 3.42857C22.7534 3.42857 21.7759 3.75 20.9684 4.29643C19.4969 1.725 16.7503 0 13.6 0C8.90375 0 5.1 3.83571 5.1 8.57143C5.1 8.71607 5.10531 8.86071 5.11062 9.00536C2.13562 10.0607 0 12.9214 0 16.2857Z" fill="black"/>
</svg>
