<svg width="30" height="30" viewBox="0 0 30 30" fill="none" xmlns="http://www.w3.org/2000/svg">
<path d="M5.625 18.75C2.51953 18.75 0 16.2305 0 13.125C0 10.6348 1.61719 8.51953 3.86133 7.78125C3.79102 7.38867 3.75 6.97852 3.75 6.5625C3.75 2.93555 6.68555 0 10.3125 0C12.8379 0 15.0293 1.42383 16.125 3.51562C16.9863 2.51367 18.2637 1.875 19.6875 1.875C22.2773 1.875 24.375 3.97266 24.375 6.5625C24.375 6.88477 24.3398 7.19531 24.2812 7.5C24.3105 7.5 24.3457 7.5 24.375 7.5C27.4805 7.5 30 10.0195 30 13.125C30 16.2305 27.4805 18.75 24.375 18.75H5.625ZM5.22656 21.7969C5.30273 21.6504 5.45508 21.5625 5.625 21.5625C5.79492 21.5625 5.94141 21.6504 6.02344 21.7969L8.08008 25.582C8.32031 26.0215 8.44336 26.5078 8.44336 27.0059V27.1816C8.44336 28.7344 7.18359 29.9941 5.63086 29.9941C4.07812 29.9941 2.81836 28.7344 2.81836 27.1816V27.0059C2.81836 26.5078 2.94141 26.0156 3.18164 25.582L5.22656 21.7969ZM14.6016 21.7969C14.6777 21.6504 14.8301 21.5625 15 21.5625C15.1699 21.5625 15.3164 21.6504 15.3984 21.7969L17.4551 25.582C17.6953 26.0215 17.8184 26.5078 17.8184 27.0059V27.1816C17.8184 28.7344 16.5586 29.9941 15.0059 29.9941C13.4531 29.9941 12.1934 28.7344 12.1934 27.1816V27.0059C12.1934 26.5078 12.3164 26.0156 12.5566 25.582L14.6016 21.7969ZM21.9199 25.582L23.9766 21.7969C24.0527 21.6504 24.2051 21.5625 24.375 21.5625C24.5449 21.5625 24.6914 21.6504 24.7734 21.7969L26.8301 25.582C27.0703 26.0215 27.1934 26.5078 27.1934 27.0059V27.1816C27.1934 28.7344 25.9336 29.9941 24.3809 29.9941C22.8281 29.9941 21.5684 28.7344 21.5684 27.1816V27.0059C21.5684 26.5078 21.6914 26.0156 21.9316 25.582H21.9199Z" fill="black"/>
</svg>
